<svg id="Layer_1" data-name="Layer 1" xmlns="http://www.w3.org/2000/svg" viewBox="0 0 403 113.69"><defs><style>.cls-1{fill:#424345;}.cls-2{fill:#f05423;}</style></defs><path class="cls-1" d="M15.49,49.07c0,15.21,9,18.34,16.63,18.34a29.32,29.32,0,0,0,10.52-1.92v-5a24.87,24.87,0,0,1-10,2c-8.45,0-12.08-4-12.08-13.44s3.63-13.43,12.08-13.43a26.14,26.14,0,0,1,10,2v-4.9a29.38,29.38,0,0,0-10.52-2C24.52,30.74,15.49,33.94,15.49,49.07Z"/><path class="cls-1" d="M50,66.84h5.12V37.56a53.35,53.35,0,0,1,12.08-1.85v-4.9A46.43,46.43,0,0,0,50,34.22Z"/><path class="cls-1" d="M121.36,30.74a31.79,31.79,0,0,0-10.65,1.85v5a31.41,31.41,0,0,1,10.37-1.7c6.4,0,10.38,2.13,10.38,8.81a44.21,44.21,0,0,0-5.69-.36c-3.26,0-18.55-.07-18.55,11.66,0,10,10.24,11.44,14.86,11.44S136.65,66,136.65,56.18V45.52C136.65,35.86,131.32,30.74,121.36,30.74Zm10.17,25.44c0,5.4-5,6.47-9.45,6.47s-9.74-1.07-9.74-6.68c0-6.54,8.6-7,12.86-7a38.86,38.86,0,0,1,6.33.43Z"/><path class="cls-1" d="M152.7,21.36h-5.11v10H141.4v4.69h6.19V57.39c0,9.1,6.68,10,9.59,10a13.39,13.39,0,0,0,4.69-.85V61.72a9.22,9.22,0,0,1-4.05.86c-3.77,0-5.12-1.35-5.12-4.91V36.07h9.17V31.38H152.7Z"/><rect class="cls-1" x="169.26" y="19.44" width="5.69" height="5.61"/><rect class="cls-1" x="169.54" y="31.38" width="5.12" height="35.46"/><polygon class="cls-1" points="196.62 60.45 185.88 31.38 180.41 31.38 193.99 66.84 199.18 66.84 212.82 31.38 207.34 31.38 196.62 60.45"/><path class="cls-1" d="M101.23,49.55a22.57,22.57,0,0,1-.14,2.48H75.22c.64,7.11,4,10.13,11.27,10.07l14.08,0v5.4l-14.34,0c-7.38-.31-16.2-3.25-16.2-18,0-3.77-.57-18.84,15.57-18.84S101.23,48.2,101.23,49.55ZM96,47.49c0-1.71-.57-12-10.37-12-7,0-9.88,3.26-10.38,12Z"/><path class="cls-1" d="M245.44,49.55A22.57,22.57,0,0,1,245.3,52H219.43c.64,7.11,3.95,10.13,11.27,10.07l14.07,0v5.4l-14.33,0c-7.38-.31-16.2-3.25-16.2-18,0-3.77-.57-18.84,15.56-18.84S245.44,48.2,245.44,49.55Zm-5.26-2.06c0-1.71-.57-12-10.38-12-7,0-9.87,3.26-10.37,12Z"/><path class="cls-1" d="M379,49.55a22.57,22.57,0,0,1-.14,2.48H353c.64,7.11,3.95,10.13,11.27,10.07l14.07,0v5.4l-14.33,0c-7.38-.31-16.2-3.25-16.2-18,0-3.77-.57-18.84,15.56-18.84S379,48.2,379,49.55Zm-5.26-2.06c0-1.71-.57-12-10.38-12-7,0-9.87,3.26-10.37,12Z"/><path class="cls-2" d="M265.67,41.89l1.2-10.28a1.44,1.44,0,0,1,1-1.11,70.84,70.84,0,0,0,12.6-5.19,54.9,54.9,0,0,0,10.83-7l0,0A27.72,27.72,0,1,0,274.2,70.3l6.36-33.39Z"/><path class="cls-2" d="M306.61,43a27.67,27.67,0,0,0-10.68-21.84L287,69.5A27.74,27.74,0,0,0,306.61,43Z"/><path class="cls-1" d="M342.11,44.24V67.33H337V44.24c0-3.35-1-7.89-9.52-7.89a33.29,33.29,0,0,0-9.31,1.42V67.33H313V34.71a35.35,35.35,0,0,1,15-3.48C337,31.23,342.11,36,342.11,44.24Z"/><path class="cls-1" d="M52.4,87.49a5.72,5.72,0,0,1,1.6.22V84.76h1.37v8c0,.57-.23,2.43-3.09,2.43-1.25,0-3.32-.51-3.32-4C49,88.15,50.84,87.49,52.4,87.49ZM52.28,94c1.14,0,1.72-.38,1.72-1.13V89a4.19,4.19,0,0,0-1.6-.32c-1.07,0-2.07.32-2.07,2.55C50.33,93.68,51.36,94,52.28,94Z"/><path class="cls-1" d="M62.78,86.45H61.31V85h1.47Zm-1.43,1.16h1.38v7.48H61.35Z"/><path class="cls-1" d="M75.36,87.61l-2.88,7.48H71.07l-2.86-7.48h1.47l2.1,5.83,2.11-5.83Z"/><path class="cls-1" d="M86.27,93.49v1.24a6.78,6.78,0,0,1-2.66.5c-1.57,0-3.45-.66-3.45-3.78,0-1,0-4,3.32-4,2,0,3.3,1.42,3.3,3.61,0,.36,0,.71,0,1H81.57A1.91,1.91,0,0,0,83.69,94,5.5,5.5,0,0,0,86.27,93.49Zm-4.71-2.6H85.4c-.08-.87-.44-2.17-1.92-2.17C82.22,88.72,81.68,89.29,81.56,90.89Z"/><path class="cls-1" d="M93.68,95.09H92.3V88.24a9.45,9.45,0,0,1,3.64-.75v1.26a9.62,9.62,0,0,0-2.26.31Z"/><path class="cls-1" d="M105.53,88v1.19a4.42,4.42,0,0,0-1.85-.45c-1.21,0-1.48.45-1.48,1,0,1.2,3.82.51,3.82,3.33,0,1-.73,2.2-2.79,2.2a4.58,4.58,0,0,1-2.16-.52V93.44a4.18,4.18,0,0,0,2.1.56c1,0,1.47-.44,1.47-.93,0-1.68-3.81-.77-3.81-3.35,0-1.08.71-2.23,2.69-2.23A4.52,4.52,0,0,1,105.53,88Z"/><path class="cls-1" d="M113,86.45h-1.47V85H113Zm-1.42,1.16H113v7.48h-1.38Z"/><path class="cls-1" d="M121,87.25v.36h1.93v1.2H121v6.28h-1.37V88.81h-1v-1.2h1v-.36c0-1.85.83-2.79,2.49-2.79a3.08,3.08,0,0,1,.81.1v1.19a2.71,2.71,0,0,0-.55-.06C121.68,85.69,121,85.69,121,87.25Z"/><path class="cls-1" d="M129.71,86.45h-1.47V85h1.47Zm-1.43,1.16h1.38v7.48h-1.38Z"/><path class="cls-1" d="M141.59,93.49v1.24a6.78,6.78,0,0,1-2.66.5c-1.57,0-3.45-.66-3.45-3.78,0-1,0-4,3.32-4,2,0,3.3,1.42,3.3,3.61,0,.36,0,.71,0,1h-5.16A1.91,1.91,0,0,0,139,94,5.5,5.5,0,0,0,141.59,93.49Zm-4.71-2.6h3.84c-.08-.87-.44-2.17-1.92-2.17C137.54,88.72,137,89.29,136.88,90.89Z"/><path class="cls-1" d="M150.75,87.49a5.79,5.79,0,0,1,1.61.22V84.76h1.36v8c0,.57-.22,2.43-3.09,2.43-1.24,0-3.31-.51-3.31-4C147.32,88.15,149.19,87.49,150.75,87.49ZM150.63,94c1.14,0,1.73-.38,1.73-1.13V89a4.2,4.2,0,0,0-1.61-.32c-1.06,0-2.07.32-2.07,2.55C148.68,93.68,149.72,94,150.63,94Z"/><path class="cls-1" d="M170.39,87.25v.36h1.93v1.2h-1.93v6.28H169V88.81H168v-1.2H169v-.36c0-1.85.83-2.79,2.49-2.79a3.08,3.08,0,0,1,.81.1v1.19a2.71,2.71,0,0,0-.55-.06C171.06,85.69,170.39,85.69,170.39,87.25Z"/><path class="cls-1" d="M179.09,86.45h-1.47V85h1.47Zm-1.43,1.16H179v7.48h-1.38Z"/><path class="cls-1" d="M185.24,95.09V88.25a7.29,7.29,0,0,1,3.19-.78c1.89,0,3,1,3,2.79v4.83h-1.38V90.17c0-.7-.2-1.42-1.7-1.42a5.8,5.8,0,0,0-1.75.27v6.07Z"/><path class="cls-1" d="M203.21,90.62v2.16c0,.57-.23,2.43-3.11,2.43s-3.16-1.89-3.16-2.47c0-1.49,1.32-2.37,3.52-2.37a10.06,10.06,0,0,1,1.37.09c-.06-1.23-.6-1.77-2.07-1.77a6.51,6.51,0,0,0-2.07.37V87.89a6.27,6.27,0,0,1,2.26-.4C202,87.49,203.21,88.6,203.21,90.62Zm-1.38.93a8.24,8.24,0,0,0-1.31-.09c-.64,0-2.22.2-2.22,1.26,0,.86.62,1.28,1.8,1.28s1.73-.41,1.73-1.23Z"/><path class="cls-1" d="M209,95.09V88.25a7.31,7.31,0,0,1,3.2-.78c1.89,0,3,1,3,2.79v4.83h-1.38V90.17c0-.7-.19-1.42-1.69-1.42a5.87,5.87,0,0,0-1.76.27v6.07Z"/><path class="cls-1" d="M226.4,93.49v1.3a6,6,0,0,1-2.21.42c-2.28,0-3.52-1.38-3.52-3.87s1.24-3.85,3.52-3.85a6,6,0,0,1,2.21.42v1.3a5,5,0,0,0-2.09-.49c-1.14,0-2.2.33-2.2,2.62s1.06,2.63,2.2,2.63A5,5,0,0,0,226.4,93.49Z"/><path class="cls-1" d="M233.34,86.45h-1.47V85h1.47Zm-1.42,1.16h1.38v7.48h-1.38Z"/><path class="cls-1" d="M245.24,90.62v2.16c0,.57-.23,2.43-3.11,2.43S239,93.32,239,92.74c0-1.49,1.32-2.37,3.52-2.37a10.06,10.06,0,0,1,1.37.09c-.06-1.23-.6-1.77-2.07-1.77a6.51,6.51,0,0,0-2.07.37V87.89a6.27,6.27,0,0,1,2.26-.4C244.07,87.49,245.24,88.6,245.24,90.62Zm-1.38.93a8.24,8.24,0,0,0-1.31-.09c-.64,0-2.22.2-2.22,1.26,0,.86.62,1.28,1.8,1.28s1.73-.41,1.73-1.23Z"/><path class="cls-1" d="M252.44,84.76V95.09h-1.38V84.76Z"/><path class="cls-1" d="M272,88v1.19a4.42,4.42,0,0,0-1.85-.45c-1.21,0-1.48.45-1.48,1,0,1.2,3.82.51,3.82,3.33,0,1-.73,2.2-2.79,2.2a4.58,4.58,0,0,1-2.16-.52V93.44a4.18,4.18,0,0,0,2.1.56c1,0,1.47-.44,1.47-.93,0-1.68-3.81-.77-3.81-3.35,0-1.08.71-2.23,2.69-2.23A4.52,4.52,0,0,1,272,88Z"/><path class="cls-1" d="M283.76,93.49v1.24a6.78,6.78,0,0,1-2.66.5c-1.57,0-3.45-.66-3.45-3.78,0-1,0-4,3.32-4,2,0,3.3,1.42,3.3,3.61,0,.36,0,.71,0,1h-5.16a1.91,1.91,0,0,0,2.12,1.9A5.5,5.5,0,0,0,283.76,93.49Zm-4.71-2.6h3.84c-.08-.87-.44-2.17-1.92-2.17C279.71,88.72,279.17,89.29,279.05,90.89Z"/><path class="cls-1" d="M291.17,95.09h-1.38V88.24a9.45,9.45,0,0,1,3.64-.75v1.26a9.62,9.62,0,0,0-2.26.31Z"/><path class="cls-1" d="M305.52,87.61l-2.88,7.48h-1.41l-2.86-7.48h1.47l2.1,5.83,2.11-5.83Z"/><path class="cls-1" d="M312.42,86.45H311V85h1.47ZM311,87.61h1.38v7.48H311Z"/><path class="cls-1" d="M323.82,93.49v1.3a5.87,5.87,0,0,1-2.2.42c-2.28,0-3.53-1.38-3.53-3.87s1.25-3.85,3.53-3.85a5.87,5.87,0,0,1,2.2.42v1.3a4.9,4.9,0,0,0-2.08-.49c-1.14,0-2.21.33-2.21,2.62S320.6,94,321.74,94A4.9,4.9,0,0,0,323.82,93.49Z"/><path class="cls-1" d="M335,93.49v1.24a6.73,6.73,0,0,1-2.65.5c-1.58,0-3.45-.66-3.45-3.78,0-1,0-4,3.31-4,2,0,3.3,1.42,3.3,3.61,0,.36,0,.71,0,1h-5.16A1.9,1.9,0,0,0,332.4,94,5.5,5.5,0,0,0,335,93.49Zm-4.71-2.6h3.84c-.07-.87-.43-2.17-1.92-2.17C330.93,88.72,330.39,89.29,330.27,90.89Z"/><path class="cls-1" d="M345.38,88v1.19a4.42,4.42,0,0,0-1.85-.45c-1.21,0-1.48.45-1.48,1,0,1.2,3.82.51,3.82,3.33,0,1-.73,2.2-2.79,2.2a4.58,4.58,0,0,1-2.16-.52V93.44A4.18,4.18,0,0,0,343,94c1,0,1.47-.44,1.47-.93,0-1.68-3.81-.77-3.81-3.35,0-1.08.71-2.23,2.69-2.23A4.52,4.52,0,0,1,345.38,88Z"/></svg>